<svg width="400" height="160" viewBox="0 0 400 160" fill="none" xmlns="http://www.w3.org/2000/svg">
<path d="M145 8C144.723 8 144.446 7.89445 144.235 7.68313L141.317 4.76545C141.114 4.56234 141 4.28716 141 4.00022C141 3.71307 141.114 3.43788 141.317 3.23477L144.235 0.317091C144.438 0.114419 144.713 0 145 0C145.287 0 145.562 0.113975 145.765 0.317091L148.683 3.23477C148.886 3.43788 149 3.71307 149 4.00022C149 4.28716 148.886 4.56256 148.683 4.76545L145.765 7.68313C145.554 7.89445 145.277 8 145 8Z" fill="#26B05D"/>
<path d="M219 108C218.792 108 218.585 107.921 218.426 107.762L216.238 105.574C216.085 105.422 216 105.215 216 105C216 104.785 216.085 104.578 216.238 104.426L218.426 102.238C218.578 102.086 218.785 102 219 102C219.215 102 219.422 102.085 219.574 102.238L221.762 104.426C221.915 104.578 222 104.785 222 105C222 105.215 221.915 105.422 221.762 105.574L219.574 107.762C219.415 107.921 219.208 108 219 108Z" fill="#26B05D"/>
<path d="M156 155C155.792 155 155.585 154.921 155.426 154.762L153.238 152.574C153.085 152.422 153 152.215 153 152C153 151.785 153.085 151.578 153.238 151.426L155.426 149.238C155.578 149.086 155.785 149 156 149C156.215 149 156.422 149.085 156.574 149.238L158.762 151.426C158.915 151.578 159 151.785 159 152C159 152.215 158.915 152.422 158.762 152.574L156.574 154.762C156.415 154.921 156.208 155 156 155Z" fill="#26B05D"/>
<path d="M343.5 20C343.258 20 343.015 19.9076 342.83 19.7225L340.278 17.1696C339.907 16.7998 339.907 16.2002 340.278 15.8304L342.83 13.2775C343.008 13.0997 343.249 13 343.5 13C343.751 13 343.992 13.0997 344.17 13.2775L346.723 15.8304C346.9 16.0078 347 16.2489 347 16.4998C347 16.7511 346.9 16.992 346.723 17.1694L344.17 19.7225C343.985 19.9076 343.742 20 343.5 20Z" fill="#26B05D"/>
<path d="M44.0003 16C42.3459 16 41 14.6542 41 13C41 11.3456 42.3459 10 44.0003 10C45.6545 10 47 11.3456 47 13C47 14.6542 45.6545 16 44.0003 16Z" fill="#26B05D"/>
<path d="M60.5001 90C59.1216 90 58 88.8785 58 87.5C58 86.1214 59.1216 85 60.5001 85C61.8786 85 63 86.1214 63 87.5C63 88.8785 61.8786 90 60.5001 90Z" fill="#26B05D"/>
<path d="M397.5 69C396.122 69 395 67.8785 395 66.5C395 65.1214 396.122 64 397.5 64C398.879 64 400 65.1214 400 66.5C400 67.8785 398.879 69 397.5 69Z" fill="#26B05D"/>
<path d="M75.9998 37C76.5226 37 77.0231 36.3104 76.9992 35.5C76.9748 34.6875 76.5601 34 75.9998 34C75.4774 34 74.9765 34.6899 75.0009 35.5C75.025 36.3125 75.4397 37 75.9998 37Z" fill="#26B05D"/>
<path d="M342.5 83C343.284 83 344.035 82.3103 343.999 81.5002C343.962 80.6872 343.34 80 342.5 80C341.716 80 340.965 80.6897 341.001 81.5002C341.038 82.3128 341.66 83 342.5 83Z" fill="#26B05D"/>
<path d="M124.5 129C124.761 129 125.012 128.54 125 128C124.987 127.458 124.78 127 124.5 127C124.239 127 123.988 127.46 124 128C124.013 128.542 124.22 129 124.5 129Z" fill="#26B05D"/>
<path d="M214.5 160C215.284 160 216.035 159.31 215.999 158.5C215.963 157.687 215.34 157 214.5 157C213.716 157 212.965 157.69 213.001 158.5C213.038 159.313 213.66 160 214.5 160Z" fill="#26B05D"/>
<path d="M13.5 58C13.7613 58 14.0118 57.5403 13.9996 57.0002C13.9875 56.4583 13.7801 56 13.5 56C13.2387 56 12.9883 56.4602 13.0004 57.0002C13.0126 57.5417 13.22 58 13.5 58Z" fill="#26B05D"/>
<path d="M1.0001 66C1.52255 66 2.02351 65.3098 1.99915 64.4997C1.97499 63.6875 1.56022 63 1.0001 63C0.477436 63 -0.0233173 63.6896 0.000840059 64.4997C0.0252021 65.3125 0.439972 66 1.0001 66Z" fill="#26B05D"/>
<path d="M32.9999 105C33.5228 105 34.0233 104.31 33.9992 103.5C33.975 102.687 33.56 102 32.9999 102C32.4775 102 31.9765 102.69 32.0009 103.5C32.025 104.313 32.4398 105 32.9999 105Z" fill="#26B05D"/>
<path fill-rule="evenodd" clip-rule="evenodd" d="M79 155C79 155.552 79.4477 156 80 156C80.5523 156 81 155.552 81 155V152H84C84.5523 152 85 151.552 85 151C85 150.448 84.5523 150 84 150H81V147C81 146.448 80.5523 146 80 146C79.4477 146 79 146.448 79 147V150H76C75.4477 150 75 150.448 75 151C75 151.552 75.4477 152 76 152H79V155Z" fill="#26B05D"/>
<path fill-rule="evenodd" clip-rule="evenodd" d="M8.5 124.5C9.05228 124.5 9.5 124.948 9.5 125.5C9.5 126.5 9.90788 127.663 10.6644 128.636C11.415 129.601 12.4562 130.312 13.6644 130.514C14.2092 130.604 14.5772 131.12 14.4864 131.664C14.3956 132.209 13.8804 132.577 13.3356 132.486C11.5438 132.188 10.085 131.149 9.08565 129.864C8.09212 128.587 7.5 127 7.5 125.5C7.5 124.948 7.94772 124.5 8.5 124.5Z" fill="#26B05D"/>
<path fill-rule="evenodd" clip-rule="evenodd" d="M287 12C287 12.5523 287.448 13 288 13C288.552 13 289 12.5523 289 12V9H292C292.552 9 293 8.55228 293 8C293 7.44772 292.552 7 292 7H289V4C289 3.44771 288.552 3 288 3C287.448 3 287 3.44771 287 4V7H284C283.448 7 283 7.44772 283 8C283 8.55228 283.448 9 284 9H287V12Z" fill="#26B05D"/>
</svg>
