<svg width="167" height="87" viewBox="0 0 167 87" fill="none" xmlns="http://www.w3.org/2000/svg">
<path d="M40.0002 38C39.7923 38 39.5846 37.9208 39.4261 37.7623L37.2378 35.5741C37.0855 35.4218 37 35.2154 37 35.0002C37 34.7848 37.0855 34.5784 37.2378 34.4261L39.4261 32.2378C39.5782 32.0858 39.7848 32 40.0002 32C40.2152 32 40.4218 32.0855 40.5739 32.2378L42.7622 34.4261C42.9145 34.5784 43 34.7848 43 35.0002C43 35.2154 42.9145 35.4219 42.7622 35.5741L40.5739 37.7623C40.4154 37.9208 40.2077 38 40.0002 38Z" fill="#26B05D"/>
<path d="M82.0002 13C81.7923 13 81.5846 12.9208 81.4261 12.7623L79.2378 10.5741C79.0855 10.4218 79 10.2154 79 10.0002C79 9.7848 79.0855 9.57841 79.2378 9.42608L81.4261 7.23782C81.5782 7.08581 81.7848 7 82.0002 7C82.2152 7 82.4218 7.08548 82.5739 7.23782L84.7622 9.42608C84.9145 9.57841 85 9.7848 85 10.0002C85 10.2154 84.9145 10.4219 84.7622 10.5741L82.5739 12.7623C82.4154 12.9208 82.2077 13 82.0002 13Z" fill="#26B05D"/>
<path d="M163.5 87C163.258 87 163.015 86.9076 162.83 86.7225L160.278 84.1696C159.907 83.7998 159.907 83.2002 160.278 82.8304L162.83 80.2775C163.008 80.0997 163.249 80 163.5 80C163.751 80 163.992 80.0997 164.17 80.2775L166.723 82.8304C166.9 83.0078 167 83.2489 167 83.4998C167 83.7511 166.9 83.992 166.723 84.1694L164.17 86.7225C163.985 86.9076 163.742 87 163.5 87Z" fill="#26B05D"/>
<path d="M164.5 5C163.122 5 162 3.87846 162 2.5C162 1.12136 163.122 0 164.5 0C165.879 0 167 1.12136 167 2.5C167 3.87846 165.879 5 164.5 5Z" fill="#26B05D"/>
<path d="M129.5 12C130.284 12 131.035 11.3103 130.999 10.5002C130.962 9.68722 130.34 9 129.5 9C128.716 9 127.965 9.68968 128.001 10.5002C128.038 11.3128 128.66 12 129.5 12Z" fill="#26B05D"/>
<path d="M55.5 44C55.7613 44 56.0117 43.5401 55.9996 43C55.9874 42.4583 55.78 42 55.5 42C55.2387 42 54.9882 42.4602 55.0004 43C55.0125 43.5419 55.2198 44 55.5 44Z" fill="#26B05D"/>
<path d="M23.4997 87C24.2839 87 25.0347 86.3103 24.9988 85.5002C24.9625 84.6872 24.3404 84 23.4997 84C22.7161 84 21.9647 84.6897 22.0013 85.5002C22.0375 86.3128 22.6596 87 23.4997 87Z" fill="#26B05D"/>
<path fill-rule="evenodd" clip-rule="evenodd" d="M4 69C4 69.5523 4.44772 70 5 70C5.55228 70 6 69.5523 6 69V66H9C9.55229 66 10 65.5523 10 65C10 64.4477 9.55229 64 9 64H6V61C6 60.4477 5.55228 60 5 60C4.44772 60 4 60.4477 4 61V64H1C0.447715 64 0 64.4477 0 65C0 65.5523 0.447715 66 1 66H4V69Z" fill="#26B05D"/>
</svg>
