<svg width="76" height="56" viewBox="0 0 76 56" fill="none" xmlns="http://www.w3.org/2000/svg">
<path d="M51.9337 25.4446C52.2697 25.4446 52.5919 25.3117 52.8294 25.0751C53.0669 24.8386 53.2004 24.5177 53.2004 24.1832V7.78553C53.2004 7.451 53.0669 7.13016 52.8294 6.89361C52.5919 6.65706 52.2697 6.52417 51.9337 6.52417H12.6671C12.3311 6.52417 12.0089 6.65706 11.7714 6.89361C11.5338 7.13016 11.4004 7.451 11.4004 7.78553V36.7968C11.4004 37.1313 11.5338 37.4522 11.7714 37.6887C12.0089 37.9253 12.3311 38.0582 12.6671 38.0582H41.8004C42.1363 38.0582 42.4585 37.9253 42.6961 37.6887C42.9336 37.4522 43.0671 37.1313 43.0671 36.7968C43.0671 36.4623 42.9336 36.1414 42.6961 35.9049C42.4585 35.6683 42.1363 35.5354 41.8004 35.5354H13.9337V9.04689H50.6671V24.1832C50.6671 24.5177 50.8005 24.8386 51.0381 25.0751C51.2756 25.3117 51.5978 25.4446 51.9337 25.4446Z" fill="#26B05D"/>
<path d="M64.4641 12.6407C64.788 12.6407 65.0987 12.5118 65.3277 12.2824C65.5568 12.053 65.6855 11.7418 65.6855 11.4174V7.74747C65.6855 7.42303 65.5568 7.11188 65.3277 6.88247C65.0987 6.65305 64.788 6.52417 64.4641 6.52417H57.1355C56.8115 6.52417 56.5009 6.65305 56.2718 6.88247C56.0427 7.11188 55.9141 7.42303 55.9141 7.74747V15.0873C55.9141 15.4117 56.0427 15.7229 56.2718 15.9523C56.5009 16.1817 56.8115 16.3106 57.1355 16.3106H62.0212C62.3451 16.3106 62.6558 16.1817 62.8849 15.9523C63.114 15.7229 63.2426 15.4117 63.2426 15.0873C63.2426 14.7628 63.114 14.4517 62.8849 14.2223C62.6558 13.9929 62.3451 13.864 62.0212 13.864H58.3569V8.97077H63.2426V11.4174C63.2426 11.7418 63.3713 12.053 63.6004 12.2824C63.8294 12.5118 64.1401 12.6407 64.4641 12.6407Z" fill="#26B05D"/>
<path d="M29.593 16.9936C29.392 16.8931 29.1686 16.8457 28.9441 16.8558C28.7196 16.866 28.5015 16.9335 28.3103 17.0518C28.1192 17.1701 27.9615 17.3353 27.8522 17.5318C27.7428 17.7283 27.6855 17.9495 27.6856 18.1744V24.7707C27.6843 24.9962 27.7409 25.2182 27.8497 25.4156C27.9586 25.613 28.1162 25.7791 28.3075 25.8982C28.4988 26.0173 28.7174 26.0853 28.9425 26.0958C29.1675 26.1063 29.3915 26.0588 29.593 25.9581L36.1839 22.6599C36.4033 22.5505 36.5878 22.382 36.7168 22.1734C36.8458 21.9649 36.9141 21.7244 36.9141 21.4791C36.9141 21.2339 36.8458 20.9934 36.7168 20.7848C36.5878 20.5763 36.4033 20.4078 36.1839 20.2984L29.593 16.9936ZM30.3219 22.6361V20.309L32.6472 21.4725L30.3219 22.6361Z" fill="#26B05D"/>
<path d="M38.8906 26.7605C39.1831 26.9195 39.5267 26.9558 39.8459 26.8614C40.1651 26.7671 40.4339 26.5497 40.5933 26.257C41.74 24.1315 42.0845 21.6637 41.5638 19.3047C41.0432 16.9458 39.6921 14.8533 37.7577 13.4099C35.8234 11.9665 33.4349 11.2687 31.029 11.444C28.6232 11.6193 26.3607 12.656 24.6552 14.3646C22.9498 16.0732 21.9154 18.3394 21.7411 20.749C21.5668 23.1586 22.2643 25.5506 23.7061 27.4875C25.1479 29.4244 27.2375 30.7768 29.5931 31.2976C31.9486 31.8183 34.4125 31.4725 36.5344 30.3234C36.8275 30.1643 37.0456 29.8952 37.1405 29.5751C37.2355 29.2551 37.1996 28.9104 37.0408 28.6168C36.882 28.3232 36.6133 28.1049 36.2937 28.0098C35.9742 27.9147 35.63 27.9506 35.3369 28.1096C33.7437 28.9721 31.8939 29.2315 30.1255 28.8403C28.3571 28.4492 26.7884 27.4336 25.7062 25.9793C24.6239 24.525 24.1005 22.7292 24.2316 20.9201C24.3627 19.1111 25.1396 17.4098 26.4202 16.1273C27.7007 14.8448 29.3995 14.0667 31.2057 13.9354C33.0119 13.8041 34.805 14.3283 36.2571 15.4122C37.7092 16.4961 38.7232 18.0672 39.1138 19.8383C39.5043 21.6094 39.2453 23.4621 38.3842 25.0577C38.2265 25.3508 38.1912 25.6947 38.2861 26.0138C38.381 26.333 38.5984 26.6015 38.8906 26.7605Z" fill="#26B05D"/>
<path d="M74.7333 43.2727H65.8667V21.6364C65.8667 21.2988 65.7332 20.9751 65.4957 20.7364C65.2581 20.4977 64.9359 20.3636 64.6 20.3636H57C56.6641 20.3636 56.3419 20.4977 56.1043 20.7364C55.8668 20.9751 55.7333 21.2988 55.7333 21.6364V28H46.8667C46.5307 28 46.2085 28.1341 45.971 28.3728C45.7335 28.6115 45.6 28.9352 45.6 29.2727V43.2727H7.6V6.36364C7.6 5.35099 8.00036 4.37982 8.71299 3.66377C9.42563 2.94773 10.3922 2.54545 11.4 2.54545H64.6C65.6078 2.54545 66.5744 2.94773 67.287 3.66377C67.9996 4.37982 68.4 5.35099 68.4 6.36364V39.4545C68.4 39.7921 68.5335 40.1158 68.771 40.3545C69.0086 40.5932 69.3307 40.7273 69.6667 40.7273C70.0026 40.7273 70.3248 40.5932 70.5623 40.3545C70.7999 40.1158 70.9333 39.7921 70.9333 39.4545V6.36364C70.9313 4.67652 70.2634 3.05907 69.0761 1.8661C67.8888 0.673121 66.2791 0.00202091 64.6 0H11.4C9.72091 0.00202091 8.11117 0.673121 6.92388 1.8661C5.73658 3.05907 5.06868 4.67652 5.06667 6.36364V43.2727H1.26667C0.930726 43.2727 0.608544 43.4068 0.370998 43.6455C0.133452 43.8842 0 44.2079 0 44.5455V49.6364C0.00201129 51.3235 0.669917 52.9409 1.85721 54.1339C3.04451 55.3269 4.65425 55.998 6.33333 56H53.2C53.5359 56 53.8581 55.8659 54.0957 55.6272C54.3332 55.3885 54.4667 55.0648 54.4667 54.7273C54.4667 54.3897 54.3332 54.066 54.0957 53.8273C53.8581 53.5886 53.5359 53.4545 53.2 53.4545H6.33333C5.32551 53.4545 4.35897 53.0523 3.64633 52.3362C2.93369 51.6202 2.53333 50.649 2.53333 49.6364V45.8182H44.3333V48.3636H30.4C30.0641 48.3636 29.7419 48.4977 29.5043 48.7364C29.2668 48.9751 29.1333 49.2988 29.1333 49.6364C29.1333 49.9739 29.2668 50.2976 29.5043 50.5363C29.7419 50.775 30.0641 50.9091 30.4 50.9091H45.6C45.9359 50.9091 46.2581 50.775 46.4957 50.5363C46.7332 50.2976 46.8667 49.9739 46.8667 49.6364V45.8182H73.4667V49.6364C73.4667 50.649 73.0663 51.6202 72.3537 52.3362C71.641 53.0523 70.6745 53.4545 69.6667 53.4545H58.2667C57.9307 53.4545 57.6085 53.5886 57.371 53.8273C57.1335 54.066 57 54.3897 57 54.7273C57 55.0648 57.1335 55.3885 57.371 55.6272C57.6085 55.8659 57.9307 56 58.2667 56H69.6667C71.3458 55.998 72.9555 55.3269 74.1428 54.1339C75.3301 52.9409 75.998 51.3235 76 49.6364V44.5455C76 44.2079 75.8666 43.8842 75.629 43.6455C75.3915 43.4068 75.0693 43.2727 74.7333 43.2727ZM58.2667 22.9091H63.3333V28H58.2667V22.9091ZM54.4667 36.9091C54.4667 36.6574 54.541 36.4113 54.6801 36.202C54.8193 35.9927 55.0172 35.8296 55.2486 35.7332C55.4801 35.6369 55.7347 35.6117 55.9805 35.6608C56.2262 35.7099 56.4519 35.8311 56.629 36.0091C56.8062 36.1871 56.9268 36.4139 56.9757 36.6608C57.0245 36.9077 56.9995 37.1636 56.9036 37.3961C56.8077 37.6287 56.6454 37.8275 56.4371 37.9673C56.2288 38.1072 55.9839 38.1818 55.7333 38.1818C55.3974 38.1818 55.0752 38.0477 54.8377 37.809C54.6001 37.5704 54.4667 37.2466 54.4667 36.9091ZM53.2 43.2727V42C53.2 41.6625 53.3335 41.3387 53.571 41.1C53.8085 40.8614 54.1307 40.7273 54.4667 40.7273H57C57.3359 40.7273 57.6581 40.8614 57.8957 41.1C58.1332 41.3387 58.2667 41.6625 58.2667 42V43.2727H53.2ZM60.8 43.2727V42C60.7988 41.3567 60.6356 40.7242 60.3255 40.1614C60.0155 39.5985 59.5686 39.1238 59.0267 38.7813C59.355 38.2122 59.5296 37.5668 59.5333 36.9091C59.5333 35.8964 59.133 34.9253 58.4203 34.2092C57.7077 33.4932 56.7412 33.0909 55.7333 33.0909C54.7255 33.0909 53.759 33.4932 53.0463 34.2092C52.3337 34.9253 51.9333 35.8964 51.9333 36.9091C51.9371 37.5668 52.1117 38.2122 52.44 38.7813C51.8981 39.1238 51.4512 39.5985 51.1411 40.1614C50.8311 40.7242 50.6678 41.3567 50.6667 42V43.2727H48.1333V30.5455H63.3333V43.2727H60.8Z" fill="#26B05D"/>
<path d="M62.1579 50.5629C62.9075 50.5629 63.5151 50.0761 63.5151 49.4756C63.5151 48.875 62.9075 48.3882 62.1579 48.3882C61.4084 48.3882 60.8008 48.875 60.8008 49.4756C60.8008 50.0761 61.4084 50.5629 62.1579 50.5629Z" fill="#26B05D"/>
<path d="M67.0427 50.5629C67.7922 50.5629 68.3998 50.0761 68.3998 49.4756C68.3998 48.875 67.7922 48.3882 67.0427 48.3882C66.2932 48.3882 65.6855 48.875 65.6855 49.4756C65.6855 50.0761 66.2932 50.5629 67.0427 50.5629Z" fill="#26B05D"/>
<path d="M8.95675 50.5629C9.70628 50.5629 10.3139 50.0761 10.3139 49.4756C10.3139 48.875 9.70628 48.3882 8.95675 48.3882C8.20722 48.3882 7.59961 48.875 7.59961 49.4756C7.59961 50.0761 8.20722 50.5629 8.95675 50.5629Z" fill="#26B05D"/>
<path d="M13.8415 50.5629C14.591 50.5629 15.1987 50.0761 15.1987 49.4756C15.1987 48.875 14.591 48.3882 13.8415 48.3882C13.092 48.3882 12.4844 48.875 12.4844 49.4756C12.4844 50.0761 13.092 50.5629 13.8415 50.5629Z" fill="#26B05D"/>
</svg>
