<svg width="107" height="56" viewBox="0 0 107 56" fill="none" xmlns="http://www.w3.org/2000/svg">
<path d="M25.6293 24.605C25.4961 24.605 25.363 24.5543 25.2615 24.4528L23.8594 23.0507C23.7618 22.9531 23.707 22.8209 23.707 22.683C23.707 22.545 23.7618 22.4128 23.8594 22.3152L25.2615 20.9131C25.359 20.8157 25.4913 20.7607 25.6293 20.7607C25.7671 20.7607 25.8994 20.8155 25.9969 20.9131L27.399 22.3152C27.4966 22.4128 27.5513 22.545 27.5513 22.683C27.5513 22.8209 27.4966 22.9532 27.399 23.0507L25.9969 24.4528C25.8954 24.5543 25.7623 24.605 25.6293 24.605Z" fill="#26B05D"/>
<path d="M52.5394 8.58697C52.4062 8.58697 52.2732 8.53625 52.1716 8.4347L50.7696 7.03265C50.672 6.93505 50.6172 6.80281 50.6172 6.66493C50.6172 6.52694 50.672 6.39471 50.7696 6.2971L52.1716 4.89505C52.2691 4.79766 52.4015 4.74268 52.5394 4.74268C52.6772 4.74268 52.8096 4.79745 52.9071 4.89505L54.3091 6.2971C54.4067 6.39471 54.4615 6.52694 54.4615 6.66493C54.4615 6.80281 54.4067 6.93515 54.3091 7.03265L52.9071 8.4347C52.8055 8.53625 52.6724 8.58697 52.5394 8.58697Z" fill="#26B05D"/>
<path d="M104.756 56.0001C104.601 56.0001 104.446 55.941 104.327 55.8224L102.691 54.1867C102.454 53.9497 102.454 53.5656 102.691 53.3286L104.327 51.6929C104.441 51.579 104.595 51.5151 104.756 51.5151C104.917 51.5151 105.071 51.579 105.185 51.6929L106.821 53.3286C106.935 53.4423 106.999 53.5968 106.999 53.7575C106.999 53.9185 106.935 54.0729 106.821 54.1865L105.185 55.8224C105.067 55.941 104.911 56.0001 104.756 56.0001Z" fill="#26B05D"/>
<path d="M105.397 3.46139C104.514 3.46139 103.795 2.74281 103.795 1.8596C103.795 0.976286 104.514 0.257812 105.397 0.257812C106.28 0.257812 106.999 0.976286 106.999 1.8596C106.999 2.74281 106.28 3.46139 105.397 3.46139Z" fill="#26B05D"/>
<path d="M82.9726 7.94656C83.4751 7.94656 83.9561 7.50467 83.9331 6.98559C83.9097 6.46473 83.5109 6.02441 82.9726 6.02441C82.4705 6.02441 81.9891 6.46631 82.0125 6.98559C82.0358 7.50625 82.4343 7.94656 82.9726 7.94656Z" fill="#26B05D"/>
<path d="M35.5606 28.4494C35.728 28.4494 35.8884 28.1547 35.8807 27.8087C35.8729 27.4616 35.74 27.168 35.5606 27.168C35.3932 27.168 35.2327 27.4628 35.2405 27.8087C35.2482 28.1559 35.3811 28.4494 35.5606 28.4494Z" fill="#26B05D"/>
<path d="M15.0566 56.0003C15.5591 56.0003 16.0401 55.5584 16.0171 55.0393C15.9938 54.5184 15.5953 54.0781 15.0566 54.0781C14.5545 54.0781 14.0731 54.52 14.0965 55.0393C14.1197 55.56 14.5183 56.0003 15.0566 56.0003Z" fill="#26B05D"/>
<path fill-rule="evenodd" clip-rule="evenodd" d="M2.56267 44.4671C2.56267 44.821 2.84953 45.1078 3.20339 45.1078C3.55724 45.1078 3.8441 44.821 3.8441 44.4671V42.5453H5.76644C6.1203 42.5453 6.40716 42.2584 6.40716 41.9046C6.40716 41.5507 6.1203 41.2638 5.76644 41.2638H3.8441V39.3414C3.8441 38.9875 3.55724 38.7007 3.20339 38.7007C2.84953 38.7007 2.56267 38.9875 2.56267 39.3414V41.2638H0.640716C0.286858 41.2638 0 41.5507 0 41.9046C0 42.2584 0.286858 42.5453 0.640716 42.5453H2.56267V44.4671Z" fill="#26B05D"/>
</svg>
