<svg width="164" height="100" viewBox="0 0 164 100" fill="none" xmlns="http://www.w3.org/2000/svg">
<path d="M16.0002 21C15.723 21 15.4461 20.8945 15.2348 20.6831L12.3171 17.7655C12.114 17.5623 12 17.2872 12 17.0002C12 16.7131 12.114 16.4379 12.3171 16.2348L15.2348 13.3171C15.4377 13.1144 15.7131 13 16.0002 13C16.2869 13 16.5623 13.114 16.7652 13.3171L19.6829 16.2348C19.886 16.4379 20 16.7131 20 17.0002C20 17.2872 19.886 17.5626 19.6829 17.7655L16.7652 20.6831C16.5539 20.8945 16.277 21 16.0002 21Z" fill="#6C9BDA"/>
<path d="M4.00011 67C3.86152 67 3.72304 66.9472 3.61738 66.8416L2.15855 65.3827C2.05699 65.2812 2 65.1436 2 65.0001C2 64.8565 2.05699 64.7189 2.15855 64.6174L3.61738 63.1585C3.71883 63.0572 3.85653 63 4.00011 63C4.14347 63 4.28117 63.057 4.38262 63.1585L5.84145 64.6174C5.94301 64.7189 6 64.8565 6 65.0001C6 65.1436 5.94301 65.2813 5.84145 65.3827L4.38262 66.8416C4.27696 66.9472 4.13848 67 4.00011 67Z" fill="#6C9BDA"/>
<path d="M129 11C128.862 11 128.723 10.9472 128.617 10.8416L127.159 9.38273C127.057 9.28117 127 9.14358 127 9.00011C127 8.85653 127.057 8.71894 127.159 8.61738L128.617 7.15855C128.719 7.05721 128.857 7 129 7C129.143 7 129.281 7.05699 129.383 7.15855L130.841 8.61738C130.943 8.71894 131 8.85653 131 9.00011C131 9.14358 130.943 9.28128 130.841 9.38273L129.383 10.8416C129.277 10.9472 129.138 11 129 11Z" fill="#6C9BDA"/>
<path d="M28.0002 45C26.8973 45 26 44.1028 26 43C26 41.8971 26.8973 41 28.0002 41C29.103 41 30 41.8971 30 43C30 44.1028 29.103 45 28.0002 45Z" fill="#6C9BDA"/>
<path d="M138 75C136.897 75 136 74.1028 136 73C136 71.8971 136.897 71 138 71C139.103 71 140 71.8971 140 73C140 74.1028 139.103 75 138 75Z" fill="#6C9BDA"/>
<path fill-rule="evenodd" clip-rule="evenodd" d="M135 41C135 41.5523 135.448 42 136 42C136.552 42 137 41.5523 137 41V38H140C140.552 38 141 37.5523 141 37C141 36.4477 140.552 36 140 36H137V33C137 32.4477 136.552 32 136 32C135.448 32 135 32.4477 135 33V36H132C131.448 36 131 36.4477 131 37C131 37.5523 131.448 38 132 38H135V41Z" fill="#6C9BDA"/>
<path d="M61.3644 41.2042C64.7109 51.1789 68.7996 59.815 72.6964 65.7325C73.3395 66.7092 73.5624 67.9381 73.1318 69.0257C72.2537 71.2428 69.4957 73.4999 65.8328 74.7287C62.1704 75.9574 58.6092 75.8204 56.5717 74.5815C55.5722 73.9737 55.0088 72.859 54.9333 71.6919C54.4722 64.6217 52.5252 55.2671 49.1788 45.2924C45.668 34.8279 41.3398 25.8361 37.2745 19.9118L55.5533 13.7794C55.883 20.9569 57.8536 30.7397 61.3644 41.2042Z" fill="#FFE38D"/>
<path d="M50.9994 43.9878C54.9666 55.8127 57.59 66.8519 58.6923 75.3608C57.8847 75.1935 57.1586 74.9394 56.5706 74.5817C55.5712 73.9739 55.0078 72.8592 54.9322 71.6921C54.4712 64.6219 52.5242 55.2673 49.1777 45.2926C45.6669 34.8281 41.3388 25.8362 37.2735 19.912L40.6206 18.789C44.1486 25.7012 47.7722 34.3684 50.9994 43.9878Z" fill="#FFE38D"/>
<path d="M56.2931 46.2944C59.6586 45.1653 61.776 42.4118 61.0235 40.1687L62.4223 44.2381C63.175 46.4817 61.0214 49.2275 57.656 50.3566C54.291 51.4855 50.909 50.56 50.1564 48.3169L48.8378 44.2767C49.5904 46.5198 52.9281 47.4233 56.2931 46.2944Z" fill="#ADC8EC"/>
<path d="M50.2003 48.3384L48.8376 44.2767C49.5902 46.5199 52.9284 47.4232 56.2934 46.2942L57.6562 50.3564C54.2908 51.4855 50.9531 50.5821 50.2003 48.3384Z" fill="#ADC8EC"/>
<path d="M44.7111 11.7678C49.759 10.0742 54.6136 10.9747 55.5545 13.7791C56.4953 16.5834 53.1659 20.229 48.118 21.9226C43.0705 23.616 38.2161 22.7159 37.2752 19.9116C36.3344 17.1073 39.6636 13.4612 44.7111 11.7678Z" fill="#FFE38D"/>
<path d="M45.1056 21.3643C47.3839 20.5999 49.1778 19.2845 50.0367 17.9113C50.3638 17.388 51.1343 17.4445 51.3307 18.0299L52.0004 20.0261C50.8894 20.776 49.5788 21.4331 48.1175 21.9234C43.07 23.6168 38.2154 22.7163 37.2746 19.912C37.9539 21.9369 41.46 22.5873 45.1056 21.3643Z" fill="#FFE38D"/>
<path d="M55.553 13.7792C56.0339 15.2128 55.3932 16.8658 53.9829 18.3662C54.1737 17.6828 54.1884 17.0095 53.9769 16.3791C53.0361 13.5748 48.1815 12.6743 43.134 14.3677C40.6672 15.1953 38.6161 16.4907 37.2682 17.9245C37.9267 15.5664 40.7968 13.0806 44.7096 11.7679C49.7575 10.0744 54.6121 10.9749 55.553 13.7792Z" fill="#FFE38D"/>
<path d="M56.5038 13.4603C56.6537 13.9072 56.7211 14.3674 56.7135 14.8335C56.6964 15.8346 56.7796 16.8341 56.8941 17.8285C57.5509 23.5342 59.0206 30.2649 61.1218 37.1564C61.2719 36.3633 61.476 35.6226 61.7535 35.0649C62.5259 33.5125 64.4172 32.878 65.9696 33.6504C67.5215 34.423 68.156 36.3143 67.3841 37.8665C66.8292 38.9809 65.5202 40.2993 64.3648 41.3272C65.9065 41.4508 67.7458 41.7129 68.8605 42.2672C70.4124 43.0398 71.0469 44.9311 70.275 46.4833C69.5024 48.0352 67.6111 48.6697 66.0589 47.8978C65.2954 47.5175 64.4364 46.7833 63.6402 45.9873C63.4464 47.3313 62.4886 48.7102 60.911 49.8318C60.4754 50.9668 59.5563 51.9066 58.3167 52.3225C57.0771 52.7384 55.7773 52.543 54.7454 51.9009C53.7919 51.929 52.9222 51.8178 52.1697 51.5836C54.3402 59.2837 55.6954 66.6562 55.9833 72.5061C56.7585 74.4278 60.7055 75.3917 65.5145 73.7783C70.3229 72.1651 72.8902 69.0163 72.3506 67.0155C69.4397 62.7454 66.4899 57.0822 63.8141 50.6229C63.8052 50.6012 63.7967 50.5792 63.7894 50.5575C63.6174 50.0448 63.885 49.4771 64.4102 49.2932C64.9186 49.115 65.4753 49.3961 65.6815 49.894C68.3289 56.2786 71.2381 61.8535 74.0957 66.0176C74.1009 66.0247 74.1848 66.17 74.2353 66.3204C75.3136 69.6903 71.7799 73.7904 66.152 75.6785C60.5246 77.5665 55.2324 76.4268 54.0607 73.0883C53.9994 72.9057 53.99 72.7712 53.9895 72.7632C53.6517 65.4122 51.5521 55.5158 48.2291 45.6109C45.4501 37.3276 41.9918 29.5663 38.4986 23.6983C38.0398 22.9279 37.5529 22.1724 36.9982 21.4677C36.7578 21.163 36.563 20.8303 36.4166 20.4709C36.3826 20.3926 36.3518 20.3121 36.3244 20.2304C35.1903 16.8501 38.734 12.7158 44.3921 10.8175C50.0497 8.91944 55.3697 10.08 56.5038 13.4603ZM65.5892 36.9734C65.7293 36.6919 65.7419 36.3799 65.6491 36.1033C65.5561 35.8261 65.3579 35.5849 65.0764 35.4448C64.5138 35.1645 63.8279 35.3946 63.5478 35.9576C63.114 36.8293 62.8941 38.5564 62.7902 40.0403C63.9112 39.0625 65.156 37.8449 65.5892 36.9734ZM66.9515 46.103C67.5145 46.3832 68.2004 46.1531 68.4801 45.5902C68.7597 45.0273 68.5303 44.3418 67.9672 44.0616C67.0956 43.6279 65.3678 43.4076 63.8844 43.3035C64.8616 44.4242 66.0785 45.6686 66.9515 46.103ZM57.6786 50.4219C58.8345 50.0341 59.4598 48.7783 59.072 47.6223C58.6842 46.4664 57.4278 45.8413 56.2719 46.2291C55.1159 46.6169 54.4913 47.873 54.8791 49.029C55.2669 50.185 56.5226 50.8098 57.6786 50.4219ZM51.1893 48.2674C51.4421 49.021 52.1291 49.5145 53.0036 49.7337C52.9955 49.7111 52.9865 49.6893 52.9787 49.666C52.775 49.0589 52.7189 48.4369 52.789 47.8386C52.1343 47.8171 51.5243 47.725 50.9719 47.5684C51.0451 47.8015 51.1172 48.0344 51.1893 48.2674ZM60.0204 45.4114C60.4375 45.8456 60.7682 46.3767 60.972 46.9843C60.9795 47.0066 60.9853 47.0289 60.9928 47.0511C61.5564 46.3484 61.7931 45.4999 61.5562 44.7937C61.4727 44.563 61.3897 44.3304 61.3068 44.0978C60.9604 44.557 60.5288 44.9986 60.0204 45.4114ZM40.7268 23.5393C44.0429 29.2866 47.2914 36.6245 49.9464 44.433C49.95 44.4439 49.9552 44.4543 49.959 44.4657C50.2724 45.3999 51.7397 45.9383 53.5861 45.8231C54.0823 45.1491 54.7822 44.6147 55.6349 44.3287C56.487 44.0428 57.3676 44.0469 58.1699 44.2853C59.7079 43.2656 60.5559 41.9417 60.2447 41.0143C60.2409 41.0029 60.2381 40.9912 60.2346 40.9792C57.6432 33.1499 55.8091 25.338 54.9881 18.7542C53.5351 20.4342 51.2472 21.9296 48.4364 22.8725C45.6257 23.8155 42.899 24.0031 40.7268 23.5393ZM48.7886 20.6056C49.5243 20.3076 50.1972 19.9734 50.8053 19.6147L50.5637 18.8947C50.1056 19.5015 49.5057 20.0815 48.7886 20.6056ZM38.2246 19.5929C38.6557 20.878 41.4569 21.531 44.7867 20.4139C48.1165 19.2967 49.9571 17.0865 49.5259 15.8014C49.3498 15.2763 49.6328 14.7085 50.1573 14.5325C50.6818 14.3565 51.25 14.6388 51.4262 15.1638L52.5139 18.4061C54.2407 16.9299 55.0039 15.2909 54.6036 14.0978C53.9349 12.1046 49.9281 11.0743 45.0296 12.7178C40.1306 14.3613 37.5559 17.5996 38.2246 19.5929Z" fill="black"/>
<path d="M104.551 41.1176C101.545 51.2001 99.9172 60.6154 99.697 67.6973C99.6606 68.8662 99.1354 69.9994 98.1571 70.6407C96.1628 71.9481 92.6083 72.206 88.9058 71.1022C85.2039 69.9985 82.3708 67.8364 81.4179 65.6504C80.9506 64.578 81.1317 63.3423 81.7418 62.3444C85.4349 56.2979 89.2281 47.528 92.2339 37.4454C95.3874 26.8677 97.0248 17.0237 97.1111 9.83926L115.587 15.3475C111.725 21.4062 107.705 30.5398 104.551 41.1176Z" fill="#FFE38D"/>
<path d="M94.4741 37.4273C90.9107 49.3801 86.7008 59.9168 82.7038 67.5089C82.1397 66.9072 81.6923 66.2814 81.4175 65.6505C80.9501 64.5781 81.1312 63.3424 81.7413 62.3445C85.4344 56.298 89.2276 47.5281 92.2334 37.4455C95.3869 26.8678 97.0243 17.0238 97.1106 9.83935L100.494 10.848C99.3996 18.5309 97.3729 27.7039 94.4741 37.4273Z" fill="#FFE38D"/>
<path d="M97.4759 42.3608C100.878 43.375 104.194 42.3425 104.87 40.0751L103.671 44.2078C102.995 46.4757 99.6536 47.4811 96.2518 46.4669C92.8504 45.4529 90.6178 42.7492 91.2938 40.4818L92.5415 36.4192C91.8655 38.6866 94.0746 41.3468 97.4759 42.3608Z" fill="#ADC8EC"/>
<path d="M91.3171 40.5248L92.5411 36.4191C91.8652 38.6865 94.0747 41.3469 97.4761 42.3609L96.252 46.467C92.8501 45.4529 90.641 42.7927 91.3171 40.5248Z" fill="#ADC8EC"/>
<path d="M107.88 7.46085C112.983 8.98204 116.434 12.513 115.589 15.3477C114.744 18.1823 109.922 19.2466 104.82 17.7255C99.7179 16.2044 96.2666 12.6739 97.1117 9.83927C97.9568 7.00463 102.778 5.9398 107.88 7.46085Z" fill="#FFE38D"/>
<path d="M102.679 15.5347C104.982 16.2213 107.206 16.1785 108.699 15.55C109.267 15.3105 109.865 15.8002 109.688 16.3919L109.087 18.4097C107.747 18.3833 106.297 18.1662 104.82 17.7258C99.7176 16.2048 96.2665 12.6738 97.1116 9.83912C96.5014 11.8859 98.9938 14.4362 102.679 15.5347Z" fill="#FFE38D"/>
<path d="M115.588 15.3476C115.156 16.7967 113.681 17.7795 111.664 18.1945C112.213 17.7456 112.613 17.2035 112.803 16.5663C113.648 13.7316 110.197 10.2006 105.095 8.67956C102.601 7.93619 100.178 7.81463 98.2507 8.2111C100.147 6.66196 103.924 6.2817 107.879 7.46081C112.982 8.982 116.433 12.513 115.588 15.3476Z" fill="#FFE38D"/>
<path d="M116.549 15.6339C116.414 16.0855 116.204 16.5007 115.93 16.8774C115.34 17.6862 114.832 18.5512 114.353 19.4303C111.606 24.4738 108.933 30.8234 106.684 37.6681C107.263 37.106 107.856 36.6179 108.404 36.3215C109.93 35.4969 111.841 36.0668 112.666 37.5921C113.49 39.1172 112.92 41.0289 111.395 41.8538C110.3 42.4455 108.471 42.77 106.934 42.9454C108.124 43.934 109.477 45.2071 110.069 46.302C110.894 47.8272 110.324 49.7389 108.799 50.5638C107.274 51.3879 105.362 50.818 104.537 49.2932C104.132 48.5428 103.852 47.4479 103.659 46.3387C102.727 47.3261 101.15 47.9022 99.2144 47.9112C98.2048 48.5884 96.9123 48.8278 95.6593 48.4543C94.4063 48.0807 93.4559 47.1727 92.9818 46.0536C92.186 45.5277 91.5388 44.9361 91.0584 44.3114C88.4004 51.8571 85.2644 58.6656 82.1321 63.6146C81.6597 65.6323 84.3323 68.6926 89.1932 70.1418C94.0536 71.5908 97.9656 70.494 98.6761 68.5473C98.7542 63.38 99.6023 57.0513 101.133 50.2293C101.138 50.2063 101.144 50.1835 101.15 50.1615C101.305 49.6433 101.85 49.3332 102.386 49.4852C102.904 49.6321 103.197 50.1825 103.079 50.7083C101.569 57.4528 100.738 63.6861 100.678 68.7361C100.678 68.7448 100.663 68.9119 100.617 69.064C99.5591 72.4402 94.3093 73.7585 88.6206 72.0626C82.9323 70.3667 79.2611 66.3883 80.2248 62.9839C80.2799 62.7994 80.3497 62.684 80.3539 62.6771C84.3095 56.4719 88.2898 47.1711 91.2746 37.1591C93.7707 28.7863 95.4109 20.4491 95.9327 13.6401C96.001 12.746 96.0378 11.8479 95.99 10.9524C95.9688 10.5649 96.0011 10.1807 96.0882 9.80254C96.1055 9.71892 96.1266 9.63535 96.1512 9.55281C97.1699 6.13595 102.447 4.79541 108.167 6.50047C113.886 8.20538 117.568 12.217 116.549 15.6339ZM110.442 40.0902C110.719 39.9406 110.908 39.6928 110.992 39.4132C111.075 39.1331 111.052 38.8217 110.903 38.5451C110.604 37.992 109.911 37.7853 109.357 38.0845C108.501 38.5475 107.327 39.8331 106.388 40.9866C107.867 40.8324 109.586 40.5534 110.442 40.0902ZM106.3 48.3396C106.599 48.8928 107.293 49.0995 107.845 48.8002C108.398 48.5009 108.605 47.8083 108.306 47.2551C107.843 46.3986 106.557 45.2239 105.404 44.2848C105.558 45.7637 105.836 47.4818 106.3 48.3396ZM96.2316 46.5328C97.4001 46.8812 98.6343 46.2143 98.9826 45.0458C99.331 43.8774 98.6636 42.643 97.4951 42.2946C96.3266 41.9463 95.0928 42.6138 94.7444 43.7823C94.3961 44.9508 95.0631 46.1845 96.2316 46.5328ZM92.1658 41.0354C91.9387 41.7972 92.2163 42.5962 92.8052 43.2788C92.8116 43.2557 92.8168 43.2327 92.8238 43.2092C93.0068 42.5954 93.3189 42.0545 93.7207 41.6057C93.1978 41.2112 92.752 40.7847 92.3904 40.3387C92.3161 40.5715 92.2409 40.8034 92.1658 41.0354ZM101.031 43.7839C101.122 44.3792 101.087 45.0037 100.904 45.618C100.897 45.6405 100.889 45.662 100.882 45.6845C101.747 45.4344 102.43 44.8768 102.642 44.163C102.707 43.9263 102.773 43.6884 102.839 43.4504C102.291 43.6265 101.684 43.7391 101.031 43.7839ZM97.8461 14.7928C97.2491 21.4012 95.6811 29.2714 93.3568 37.1846C93.3536 37.1956 93.3518 37.2071 93.3483 37.2186C93.0668 38.1629 93.9566 39.4478 95.5327 40.4166C96.3265 40.1511 97.2064 40.1171 98.0682 40.374C98.9296 40.6308 99.6473 41.1411 100.166 41.7979C102.011 41.8495 103.466 41.2551 103.746 40.3177C103.749 40.3062 103.754 40.295 103.758 40.2831C106.146 32.3895 109.143 24.9461 112.262 19.09C110.107 19.6272 107.375 19.5329 104.534 18.6858C101.693 17.8388 99.3554 16.4225 97.8461 14.7928ZM106.127 17.0349C106.9 17.2148 107.643 17.3289 108.346 17.3856L108.563 16.6578C107.839 16.8903 107.015 17.0192 106.127 17.0349ZM98.072 10.1254C97.6847 11.4245 99.5993 13.5709 102.965 14.5744C106.331 15.5778 109.108 14.8301 109.496 13.5311C109.654 13.0004 110.212 12.6989 110.742 12.857C111.272 13.0151 111.575 13.573 111.416 14.1037L110.439 17.381C112.701 17.1681 114.269 16.2672 114.628 15.0612C115.229 13.0464 112.546 9.8974 107.594 8.42124C102.642 6.94493 98.6727 8.11063 98.072 10.1254Z" fill="black"/>
<path d="M81.4362 41.4315C84.2726 51.563 87.9181 60.3954 91.5098 66.5028C92.1026 67.5109 92.2629 68.7496 91.7776 69.8139C90.7882 71.9836 87.9193 74.0979 84.1988 75.1395C80.4789 76.1809 76.9292 75.8634 74.9571 74.5228C73.9897 73.8651 73.4836 72.7233 73.4673 71.5538C73.3654 64.4694 71.8953 55.0281 69.059 44.8965C66.0833 34.2674 62.2168 25.0676 58.4571 18.9449L77.0233 13.7473C76.9886 20.9323 78.4606 30.8024 81.4362 41.4315Z" fill="#FFE38D"/>
<path d="M70.943 43.686C74.3054 55.6969 76.3657 66.855 77.0351 75.4088C76.237 75.2007 75.5247 74.9102 74.9556 74.5231C73.9883 73.8654 73.4822 72.7236 73.4659 71.5541C73.364 64.4697 71.8938 55.0284 69.0575 44.8968C66.0819 34.2677 62.2153 25.068 58.4557 18.9452L61.8555 17.9934C65.0284 25.0756 68.2077 33.9154 70.943 43.686Z" fill="#FFE38D"/>
<path d="M76.1135 46.2581C79.5318 45.3011 81.7862 42.6586 81.1484 40.3802L82.339 44.5153C82.977 46.7942 80.6869 49.4272 77.2686 50.3842C73.8507 51.341 70.5199 50.2452 69.8821 47.9668L68.7701 43.8649C69.4079 46.1434 72.6956 47.2149 76.1135 46.2581Z" fill="#ADC8EC"/>
<path d="M69.9255 47.9905L68.7706 43.8649C69.4084 46.1433 72.6965 47.2148 76.1144 46.2579L77.2695 50.384C73.8511 51.341 70.5635 50.2694 69.9255 47.9905Z" fill="#ADC8EC"/>
<path d="M66.2957 11.1885C71.423 9.7531 76.2257 10.8986 77.0231 13.7471C77.8205 16.5955 74.3105 20.0676 69.1832 21.503C64.0564 22.9382 59.2538 21.7932 58.4564 18.9448C57.659 16.0964 61.1688 12.6237 66.2957 11.1885Z" fill="#FFE38D"/>
<path d="M66.2028 20.7928C68.5169 20.145 70.3753 18.9223 71.3027 17.5943C71.656 17.0884 72.4225 17.1838 72.589 17.7784L73.1566 19.806C72.009 20.4986 70.6668 21.0885 69.1825 21.504C64.0557 22.9392 59.253 21.7937 58.4556 18.9453C59.0314 21.002 62.4999 21.8294 66.2028 20.7928Z" fill="#FFE38D"/>
<path d="M77.0228 13.7472C77.4304 15.2033 76.7068 16.8217 75.2222 18.2487C75.4474 17.5759 75.4962 16.9042 75.317 16.2638C74.5195 13.4154 69.7169 12.2699 64.59 13.7051C62.0844 14.4066 59.9702 15.5963 58.5514 16.9599C59.3286 14.6382 62.3211 12.3012 66.2954 11.1886C71.4227 9.75324 76.2254 10.8988 77.0228 13.7472Z" fill="#FFE38D"/>
<path d="M77.9883 13.4769C78.1153 13.9307 78.1593 14.3938 78.128 14.8589C78.0602 15.8579 78.0926 16.8602 78.1565 17.8592C78.5231 23.5909 79.6496 30.3874 81.3986 37.3766C81.5888 36.5922 81.8302 35.8628 82.1356 35.3198C82.9858 33.8086 84.9068 33.2708 86.418 34.121C87.9288 34.9713 88.4666 36.8923 87.6169 38.4034C87.0062 39.4882 85.6321 40.7385 84.426 41.7065C85.9595 41.9081 87.7831 42.2632 88.8682 42.8733C90.379 43.7236 90.9168 45.6446 90.0671 47.1557C89.2168 48.6664 87.2958 49.2042 85.7847 48.3546C85.0415 47.936 84.2208 47.1593 83.466 46.3239C83.2043 47.6563 82.1778 48.9849 80.5454 50.0251C80.0527 51.1365 79.0872 52.0285 77.8281 52.381C76.569 52.7334 75.2807 52.4724 74.2828 51.7789C73.3291 51.7586 72.4661 51.6034 71.7265 51.3313C73.5037 59.1316 74.4833 66.5633 74.4741 72.4203C75.1509 74.3788 79.044 75.5416 83.9286 74.1742C88.8126 72.8069 91.5363 69.7923 91.0988 67.7667C88.4082 63.3545 85.7494 57.549 83.4046 50.9624C83.3968 50.9402 83.3894 50.9178 83.3833 50.8957C83.2375 50.375 83.5335 49.8216 84.0674 49.6646C84.5841 49.5124 85.1259 49.8214 85.3065 50.3291C87.6268 56.8397 90.2495 62.555 92.8923 66.8587C92.8971 66.866 92.9736 67.0153 93.0164 67.1681C93.9224 70.5883 90.1853 74.504 84.4689 76.1043C78.753 77.7045 73.5255 76.2979 72.5245 72.9043C72.4725 72.7188 72.47 72.584 72.4699 72.5759C72.5053 65.2172 70.9103 55.2271 68.0938 45.1665C65.7384 36.7529 62.6781 28.8262 59.4871 22.7886C59.0679 21.996 58.6199 21.2167 58.1017 20.4848C57.8771 20.1683 57.6994 19.8261 57.5714 19.4598C57.5414 19.3798 57.5147 19.2979 57.4915 19.2149C56.5303 15.7815 60.279 11.8322 66.0261 10.2233C71.7727 8.61453 77.0271 10.0434 77.9883 13.4769ZM85.8696 37.4204C86.0238 37.1463 86.0522 36.8354 85.9735 36.5544C85.8947 36.273 85.709 36.022 85.4349 35.8678C84.8873 35.5593 84.1907 35.7543 83.8823 36.3024C83.4049 37.151 83.0977 38.8647 82.9186 40.3414C84.0878 39.4217 85.3927 38.2688 85.8696 37.4204ZM86.7672 46.6074C87.3153 46.9157 88.0119 46.7207 88.3198 46.1727C88.6276 45.6247 88.4333 44.9284 87.8851 44.6201C87.0366 44.1427 85.3222 43.8351 83.846 43.6559C84.7651 44.8247 85.9173 46.1293 86.7672 46.6074ZM77.2871 50.4505C78.4613 50.1218 79.1494 48.8993 78.8207 47.7252C78.492 46.551 77.269 45.863 76.0949 46.1917C74.9207 46.5204 74.2332 47.7433 74.5619 48.9174C74.8906 50.0916 76.113 50.7792 77.2871 50.4505ZM70.9155 47.9696C71.1298 48.7351 71.7908 49.2628 72.6531 49.526C72.6462 49.5031 72.6383 49.4809 72.6317 49.4572C72.459 48.8405 72.4345 48.2165 72.5349 47.6225C71.8822 47.5678 71.2775 47.4449 70.7338 47.2606C70.7951 47.4971 70.8553 47.7333 70.9155 47.9696ZM79.88 45.5651C80.2746 46.02 80.5779 46.5671 80.7507 47.1843C80.757 47.2069 80.7617 47.2295 80.768 47.2521C81.3666 46.5788 81.646 45.7434 81.4452 45.0262C81.3735 44.7915 81.3025 44.555 81.2314 44.3185C80.8622 44.7596 80.4087 45.1786 79.88 45.5651ZM61.7204 22.7429C64.7408 28.6509 67.6131 36.1441 69.8686 44.0772C69.8717 44.0882 69.8763 44.0989 69.8795 44.1104C70.1452 45.0594 71.5833 45.6715 73.4332 45.6501C73.9629 45.0021 74.689 44.5039 75.5551 44.2615C76.4206 44.0192 77.2998 44.0679 78.089 44.3467C79.6768 43.4062 80.5908 42.127 80.3271 41.1851C80.3239 41.1735 80.3216 41.1617 80.3187 41.1495C78.1277 33.1989 76.6921 25.3041 76.2061 18.6871C74.6697 20.2912 72.3089 21.6686 69.454 22.4679C66.599 23.2671 63.8663 23.3161 61.7204 22.7429ZM69.9206 20.2217C70.6705 19.9614 71.3595 19.6617 71.985 19.3343L71.7802 18.603C71.2919 19.1858 70.6634 19.7346 69.9206 20.2217ZM59.4216 18.6746C59.787 19.9799 62.5514 20.7741 65.9336 19.8273C69.3158 18.8804 71.2661 16.7664 70.9007 15.461C70.7514 14.9278 71.0628 14.375 71.5955 14.2258C72.1283 14.0767 72.6815 14.3874 72.8308 14.9207L73.7527 18.214C75.5521 16.8273 76.3974 15.229 76.0582 14.0172C75.4914 11.9926 71.542 10.7605 66.5664 12.1534C61.5904 13.5464 58.8548 16.65 59.4216 18.6746Z" fill="black"/>
<path d="M114.516 66.4175V91.5374C114.516 94.0503 111.987 96.0872 108.867 96.0872H47.1331C44.0133 96.0872 41.4844 94.0503 41.4844 91.5374V66.4175H114.516Z" fill="#ADC8EC"/>
<path d="M114.516 66.4175V91.5374C114.516 94.0503 111.987 96.0872 108.867 96.0872H47.1331C44.0133 96.0872 41.4844 94.0503 41.4844 91.5374V66.4175H114.516Z" fill="#ADC8EC"/>
<path d="M109.711 66.4175V91.5374C109.711 94.0503 107.182 96.0872 104.062 96.0872H108.867C111.987 96.0872 114.516 94.0503 114.516 91.5374V66.4175H109.711Z" fill="#ADC8EC"/>
<path d="M97.8594 66.4175H104.266V96.0872H97.8594V66.4175Z" fill="#FFE38D"/>
<path d="M67.1094 66.4175H73.5157V96.0872H67.1094V66.4175Z" fill="#FFE38D"/>
<path d="M41.4844 71.5774H114.516V76.7373H41.4844V71.5774Z" fill="#ADC8EC"/>
<path d="M109.713 71.5774H114.518V76.7373H109.713V71.5774Z" fill="#FFE38D"/>
<path d="M41.4844 83.5742H114.516V88.7342H41.4844V83.5742Z" fill="#ADC8EC"/>
<path d="M109.713 83.5742H114.518V88.7342H109.713V83.5742Z" fill="#FFE38D"/>
<path d="M116.838 66.4175H39.1621C38.6314 66.4175 38.2012 66.071 38.2012 65.6435V60.7415C38.2012 60.314 38.6314 59.9675 39.1621 59.9675H116.838C117.369 59.9675 117.799 60.314 117.799 60.7415V65.6435C117.799 66.071 117.369 66.4175 116.838 66.4175Z" fill="#ADC8EC"/>
<path d="M116.84 59.9675H112.035C112.566 59.9675 112.996 60.314 112.996 60.7415V65.6435C112.996 66.071 112.566 66.4175 112.035 66.4175H116.84C117.371 66.4175 117.801 66.071 117.801 65.6435V60.7415C117.801 60.314 117.371 59.9675 116.84 59.9675Z" fill="#FFE38D"/>
<path d="M51.7363 66.4175H58.1426V96.0872H51.7363V66.4175Z" fill="#FFE38D"/>
<path d="M82.4863 66.4175H88.8926V96.0872H82.4863V66.4175Z" fill="#FFE38D"/>
<path d="M116.838 59H52.3751C51.7117 59 51.1739 59.4332 51.1739 59.9675C51.1739 60.5018 51.7117 60.935 52.3751 60.935H116.598V65.4499H39.4024V60.935H46.7573C47.4206 60.935 47.9584 60.5018 47.9584 59.9675C47.9584 59.4332 47.4206 59 46.7573 59H39.1621C37.9699 59 37 59.7812 37 60.7415V65.6434C37 66.6037 37.9699 67.3849 39.1621 67.3849H40.2832V91.5374C40.2832 94.5796 43.3562 97.0547 47.1332 97.0547H75.3023C75.9657 97.0547 76.5035 96.6215 76.5035 96.0872C76.5035 95.5529 75.9657 95.1197 75.3023 95.1197H74.7171V89.7017H81.2835V95.1197H80.9448C80.2813 95.1197 79.7436 95.5529 79.7436 96.0872C79.7436 96.6215 80.2813 97.0547 80.9448 97.0547H108.867C112.644 97.0547 115.717 94.5796 115.717 91.5374V82.5258C115.717 81.9915 115.18 81.5583 114.516 81.5583C113.853 81.5583 113.315 81.9915 113.315 82.5258V82.6068H105.467V77.7048H113.315V77.9347C113.315 78.469 113.853 78.9022 114.516 78.9022C115.18 78.9022 115.717 78.469 115.717 77.9347V67.3849H116.838C118.031 67.3849 119.001 66.6037 119.001 65.6434V60.7415C119.001 59.7812 118.031 59 116.838 59ZM103.065 67.3849V70.6099H99.061V67.3849H103.065ZM90.0922 82.6068V77.7048H96.6586V82.6068H90.0922ZM90.0922 89.7017H96.6586V95.1197H90.0922V89.7017ZM90.0922 67.3849H96.6586V70.6099H90.0922V67.3849ZM81.2835 72.5449V75.7699H59.342V72.5449H81.2835ZM59.342 70.6099V67.3849H65.9084V70.6099H59.342ZM59.342 89.7017H65.9084V95.1197H59.342V89.7017ZM59.342 77.7048H65.9084V82.6068H59.342V77.7048ZM68.3108 77.7048H72.3147V82.6068H68.3108V77.7048ZM74.7171 77.7048H81.2835V82.6068H74.7171V77.7048ZM81.2835 70.6099H74.7171V67.3849H81.2835V70.6099ZM72.3147 67.3849V70.6099H68.3108V67.3849H72.3147ZM50.5333 75.7699H42.6856V72.5449H50.5333V75.7699ZM42.6856 77.7048H50.5333V82.6068H42.6856V77.7048ZM42.6856 84.5418H50.5333V87.7668H42.6856V84.5418ZM50.5333 67.3849V70.6099H42.6856V67.3849H50.5333ZM42.6856 91.5374V89.7017H50.5333V95.1197H47.1332C44.6808 95.1197 42.6856 93.5126 42.6856 91.5374ZM52.9357 95.1197V67.3849H56.9396V95.1197H52.9357ZM72.3147 95.1197H68.3108V89.7017H72.3147V95.1197ZM59.342 87.7668V84.5418H81.2835V87.7668H59.342ZM83.6859 95.1197V67.3849H87.6898V95.1197H83.6859ZM99.061 95.1197V89.7017H103.065V95.1197H99.061ZM108.867 95.1197H105.467V89.7017H113.315V91.5374C113.315 93.5126 111.32 95.1197 108.867 95.1197ZM113.315 87.7668H90.0922V84.5418H113.315V87.7668ZM103.065 82.6068H99.061V77.7048H103.065V82.6068ZM90.0922 75.7699V72.5449H113.315V75.7699H90.0922ZM113.315 70.6099H105.467V67.3849H113.315V70.6099Z" fill="black"/>
</svg>
