<svg width="16" height="16" viewBox="0 0 17 16" fill="none" xmlns="http://www.w3.org/2000/svg">
<path d="M3.3768 10.1161C3.3768 11.0461 2.62519 11.7977 1.69524 11.7977C0.76528 11.7977 0.0136719 11.0461 0.0136719 10.1161C0.0136719 9.18618 0.76528 8.43457 1.69524 8.43457H3.3768V10.1161Z" fill="white"/>
<path d="M4.2168 10.1152C4.2168 9.1852 4.96841 8.43359 5.89836 8.43359C6.82832 8.43359 7.57993 9.1852 7.57993 10.1152V14.3191C7.57993 15.249 6.82832 16.0006 5.89836 16.0006C4.96841 16.0006 4.2168 15.249 4.2168 14.3191V10.1152Z" fill="white"/>
<path d="M5.89836 3.36312C4.96841 3.36312 4.2168 2.61151 4.2168 1.68156C4.2168 0.751607 4.96841 0 5.89836 0C6.82832 0 7.57993 0.751607 7.57993 1.68156V3.36312H5.89836Z" fill="white"/>
<path d="M5.89821 4.21777C6.82816 4.21777 7.57977 4.96938 7.57977 5.89933C7.57977 6.82929 6.82816 7.5809 5.89821 7.5809H1.68156C0.751607 7.5809 0 6.82929 0 5.89933C0 4.96938 0.751607 4.21777 1.68156 4.21777H5.89821Z" fill="white"/>
<path d="M12.6367 5.89933C12.6367 4.96938 13.3883 4.21777 14.3183 4.21777C15.2482 4.21777 15.9998 4.96938 15.9998 5.89933C15.9998 6.82929 15.2482 7.5809 14.3183 7.5809H12.6367V5.89933Z" fill="white"/>
<path d="M11.7967 5.8982C11.7967 6.82815 11.0451 7.57976 10.1152 7.57976C9.1852 7.57976 8.43359 6.82815 8.43359 5.8982V1.68156C8.43359 0.751607 9.1852 0 10.1152 0C11.0451 0 11.7967 0.751607 11.7967 1.68156V5.8982Z" fill="white"/>
<path d="M10.1132 12.6338C11.0432 12.6338 11.7948 13.3854 11.7948 14.3153C11.7948 15.2453 11.0432 15.9969 10.1132 15.9969C9.18325 15.9969 8.43164 15.2453 8.43164 14.3153V12.6338H10.1132Z" fill="white"/>
<path d="M10.1132 11.7987C9.18325 11.7987 8.43164 11.0471 8.43164 10.1171C8.43164 9.18715 9.18325 8.43555 10.1132 8.43555H14.3298C15.2598 8.43555 16.0114 9.18715 16.0114 10.1171C16.0114 11.0471 15.2598 11.7987 14.3298 11.7987H10.1132Z" fill="white"/>
</svg>
