<svg width="18" height="18" viewBox="0 0 18 18" fill="none" xmlns="http://www.w3.org/2000/svg">
<path d="M18 9C18 13.9725 13.9725 18 9 18C4.0275 18 0 13.9725 0 9C0 4.0275 4.0275 0 9 0C13.9725 0 18 4.0275 18 9ZM7.353 13.7475C11.3445 13.7475 13.527 10.44 13.527 7.5735C13.527 7.479 13.527 7.3845 13.5225 7.2945C13.9455 6.9885 14.3145 6.606 14.607 6.1695C14.22 6.3405 13.8015 6.4575 13.3605 6.5115C13.8105 6.2415 14.1525 5.8185 14.3145 5.31C13.896 5.5575 13.4325 5.7375 12.9375 5.8365C12.5415 5.4135 11.979 5.1525 11.3535 5.1525C10.1565 5.1525 9.1845 6.1245 9.1845 7.3215C9.1845 7.4925 9.2025 7.659 9.243 7.8165C7.4385 7.7265 5.841 6.8625 4.77 5.5485C4.5855 5.868 4.4775 6.2415 4.4775 6.6375C4.4775 7.389 4.86 8.055 5.445 8.442C5.0895 8.433 4.7565 8.334 4.464 8.172C4.464 8.181 4.464 8.19 4.464 8.199C4.464 9.252 5.211 10.125 6.2055 10.3275C6.0255 10.377 5.832 10.404 5.634 10.404C5.4945 10.404 5.3595 10.3905 5.2245 10.3635C5.499 11.2275 6.3 11.853 7.2495 11.871C6.507 12.4515 5.571 12.798 4.554 12.798C4.3785 12.798 4.2075 12.789 4.0365 12.7665C4.986 13.3875 6.129 13.7475 7.353 13.7475Z" fill="white"/>
</svg>
